<svg xmlns="http://www.w3.org/2000/svg" viewBox="0 0 100 100" width="100" height="100">
  <!-- 배경 -->
  <rect width="100" height="100" rx="22" fill="#f5ede0"/>
  <!-- 배경 원형 장식 -->
  <circle cx="78" cy="78" r="32" fill="rgba(201,144,42,0.10)"/>
  <circle cx="15" cy="18" r="22" fill="rgba(139,46,26,0.06)"/>
  <!-- 펼쳐진 책 왼쪽 -->
  <path d="M8 26 L48 20 L48 78 L8 84 Z" fill="#8b2e1a"/>
  <!-- 책 왼쪽 줄 -->
  <rect x="14" y="38" width="27" height="3.5" rx="1.5" fill="rgba(255,244,238,0.6)"/>
  <rect x="14" y="47" width="21" height="3.5" rx="1.5" fill="rgba(255,244,238,0.6)"/>
  <rect x="14" y="56" width="27" height="3.5" rx="1.5" fill="rgba(255,244,238,0.6)"/>
  <rect x="14" y="65" width="17" height="3.5" rx="1.5" fill="rgba(201,144,42,0.85)"/>
  <!-- 책 오른쪽 -->
  <path d="M92 26 L52 20 L52 78 L92 84 Z" fill="#8b2e1a"/>
  <!-- 책 오른쪽 줄 -->
  <rect x="59" y="38" width="27" height="3.5" rx="1.5" fill="rgba(255,244,238,0.6)"/>
  <rect x="59" y="47" width="21" height="3.5" rx="1.5" fill="rgba(255,244,238,0.6)"/>
  <rect x="59" y="56" width="27" height="3.5" rx="1.5" fill="rgba(255,244,238,0.6)"/>
  <!-- 중앙 접힘선 -->
  <rect x="47" y="20" width="6" height="58" rx="3" fill="#6b2014"/>
  <!-- 깃털 펜 -->
  <g transform="translate(63,10) rotate(-32)">
    <path d="M0,0 C8,-12 22,-18 30,-13 C21,-7 14,4 8,20 Z" fill="#c9902a" opacity="0.92"/>
    <path d="M0,0 C-2,-8 5,-17 13,-19 C9,-10 4,3 0,20 Z" fill="#e8b84b" opacity="0.7"/>
    <path d="M0,0 L-2,24 L2,24 Z" fill="#4a3010"/>
    <line x1="0" y1="17" x2="0" y2="24" stroke="#c9902a" stroke-width="1.2"/>
  </g>
</svg>
